<?xml version="1.0" encoding="iso-8859-1"?>
<!-- Uploaded to: SVG Repo, www.svgrepo.com, Generator: SVG Repo Mixer Tools -->
<svg version="1.1" id="Layer_1" xmlns="http://www.w3.org/2000/svg" xmlns:xlink="http://www.w3.org/1999/xlink" 
	 viewBox="0 0 512.001 512.001" xml:space="preserve">
<polygon style="fill:#FFD6CF;" points="269.702,128.793 275.208,91.693 244.565,89.736 238.459,123.514 "/>
<polygon style="opacity:0.32;fill:#831232;enable-background:new    ;" points="272.091,115.16 275.208,91.693 244.78,88.513 
	240.86,109.811 "/>
<g>
	<rect x="400.703" y="82.856" style="fill:#998269;" width="20.66" height="177.987"/>
	<rect x="400.703" y="225.593" style="fill:#998269;" width="21.162" height="278.783"/>
</g>
<rect x="400.703" y="214.172" style="fill:#836F5A;" width="20.66" height="46.679"/>
<path style="fill:#347642;" d="M91.504,418.572l69.491-66.552l25.061-85.778h38.35l-27.619,100.32
	c-0.737,2.753-2.061,5.194-3.781,7.257c-0.645,0.933-1.366,1.828-2.195,2.656l-81.438,78.78L91.504,418.572z"/>
<g style="opacity:0.53;">
	<polygon style="fill:#2B5448;" points="186.057,266.242 176.384,299.349 215.293,299.349 224.407,266.242 	"/>
</g>
<path style="fill:#FFD6CF;" d="M299.73,8.775c-4.425-4.755-10.419-7.501-16.879-7.733L254.35,0.016
	c-13.397-0.469-24.644,10.008-25.125,23.381l-1.795,49.915c-0.233,6.46,2.077,12.636,6.502,17.392
	c4.425,4.756,10.419,7.501,16.879,7.734l28.5,1.025c0.297,0.011,0.593,0.016,0.889,0.016c6.136,0,11.967-2.295,16.504-6.517
	c4.755-4.425,7.501-10.42,7.733-16.879l1.796-49.915C306.465,19.705,304.155,13.529,299.73,8.775z"/>
<path style="fill:#AA6518;" d="M163.793,89.17l-24.095-5.711c-2.487-0.589-4.958,1.027-5.416,3.54l-13.056,71.705
	c-0.576,3.161,1.435,6.216,4.565,6.939l23.646,5.456L163.793,89.17z"/>
<path style="fill:#FFB057;" d="M183.647,223.348l-39.27-6.882c-5.297-0.929-8.87-6.021-7.943-11.318L160.7,66.675
	c0.929-5.297,6.021-8.87,11.318-7.943l39.27,6.882c5.297,0.929,8.87,6.021,7.943,11.318l-24.266,138.472
	C194.037,220.701,188.944,224.276,183.647,223.348z"/>
<path style="opacity:0.48;fill:#AA6518;enable-background:new    ;" d="M211.289,65.615l-1.52-0.266l-23.789,135.754
	c-0.929,5.297-6.021,8.87-11.317,7.943l-37.749-6.616l-0.476,2.717c-0.929,5.297,2.646,10.39,7.943,11.317l39.27,6.882
	c5.297,0.929,10.39-2.646,11.318-7.943l24.266-138.472C220.159,71.637,216.585,66.544,211.289,65.615z"/>
<path style="fill:#C71C4B;" d="M304.332,15.637c-1.087-2.491-2.602-4.809-4.511-6.863c-4.425-4.755-10.419-7.501-16.879-7.733
	L254.44,0.016c-13.397-0.469-24.644,10.008-25.125,23.381l-1.063,29.545C239.933,50.804,281.335,41.623,304.332,15.637z"/>
<g>
	<path style="fill:#71CE93;" d="M282.214,157.564c3.082-17.587-8.786-34.498-26.373-37.581l-33.208-5.819
		c-5.297-0.929-10.39,2.646-11.318,7.943l-25.257,144.134l31.603,5.538c0.181,0.367,0.353,0.736,0.56,1.095l52.844,93.287v102.875
		l38.376,4.459V362.372c0-1.172-0.123-2.315-0.326-3.43c-0.243-2.675-1.032-5.337-2.458-7.806l-44.574-78.688l12.293-70.148
		L282.214,157.564z"/>
	<polygon style="fill:#71CE93;" points="228.489,156.414 301.46,229.385 301.922,228.923 301.948,229.544 393.676,225.59 
		392.146,190.079 315.716,193.374 257.881,137.942 	"/>
</g>
<path style="fill:#D8EDDE;" d="M125.261,491.937l-53.559-53.559l19.806-19.806l40.636,51.319c3.799,4.797,3.413,11.675-0.898,16.018
	L125.261,491.937z"/>
<polygon style="fill:#FFD6CF;" points="392.146,190.079 440.299,187.64 426.32,224.786 393.676,225.59 "/>
<path style="fill:#3F8E50;" d="M309.114,358.942c-0.243-2.675-1.032-5.337-2.458-7.806l-44.574-78.688l4.748-27.098l-74.884-12.72
	l-5.891,33.611l31.603,5.538c0.181,0.367,0.353,0.736,0.56,1.095l52.844,93.287v102.875l38.376,9.716v-116.38
	C309.44,361.201,309.317,360.057,309.114,358.942z"/>
<path style="fill:#D8EDDE;" d="M346.808,497.048h-75.744v-28.009l65.022,7.554c6.078,0.706,10.668,5.843,10.691,11.961
	L346.808,497.048z"/>
<path d="M446.459,183.142c-1.517-2.077-3.986-3.256-6.547-3.119l-10.418,0.528V82.854c0-4.212-3.415-7.628-7.628-7.628h-21.162
	c-4.212,0-7.628,3.415-7.628,7.628v99.54l-1.26,0.064h-0.001l-73.175,3.155l-28.785-27.589c1.569-10.232-0.835-20.522-6.833-29.07
	c-1.398-1.992-2.958-3.825-4.648-5.503l3.436-24.048c5.539-0.367,10.755-2.592,14.891-6.442c4.755-4.425,7.501-10.42,7.733-16.879
	l1.796-49.915c0.233-6.46-2.077-12.636-6.502-17.392c-4.425-4.755-10.419-7.501-16.879-7.733L254.35,0.015
	c-13.397-0.469-24.644,10.008-25.125,23.381l-1.795,49.915c-0.233,6.46,2.077,12.636,6.502,17.392
	c0.727,0.781,1.5,1.502,2.307,2.173l-2.809,15.438l-9.481-1.662c-0.718-0.126-1.432-0.191-2.143-0.227l4.938-28.175
	c0.801-4.568-0.232-9.184-2.907-12.995c-2.675-3.812-6.664-6.351-11.233-7.152l-39.27-6.882
	c-9.454-1.662-18.491,4.685-20.147,14.138l-2.294,13.096l-13.919-3.479c-2.047-0.513-4.213-0.153-5.984,0.991
	c-1.772,1.143-2.992,2.969-3.369,5.043l-14.928,81.977c-0.725,3.98,1.782,7.832,5.714,8.781l15.48,3.739l-4.964,28.325
	c-1.657,9.452,4.686,18.491,14.14,20.147l39.27,6.882c0.718,0.126,1.432,0.19,2.143,0.226l-5.857,33.422l-24.37,83.413
	L86.23,413.064c-0.027,0.026-0.051,0.056-0.078,0.082c-0.011,0.011-0.024,0.021-0.037,0.033l-19.806,19.806
	c-2.979,2.979-2.979,7.809,0,10.786l53.559,53.56c1.431,1.431,3.37,2.234,5.393,2.234c0.004,0,0.009,0,0.014,0
	c2.028-0.004,3.97-0.815,5.399-2.254l5.985-6.029c7.024-7.076,7.654-18.308,1.463-26.126l-12.076-15.251l70.075-67.954
	c0.028-0.027,0.057-0.056,0.084-0.084c1.036-1.036,1.98-2.161,2.879-3.432c2.393-2.945,4.098-6.272,5.053-9.838l19.541-70.605
	l39.756,70.182V469.04v28.01c0,4.212,3.415,7.628,7.628,7.628h75.745c2.028,0,3.972-0.808,5.403-2.245
	c1.431-1.437,2.231-3.384,2.224-5.412l-0.032-8.495c-0.038-9.972-7.534-18.358-17.439-19.509l-19.898-2.312V362.372
	c0-1.464-0.128-2.927-0.391-4.464c-0.389-3.775-1.538-7.334-3.384-10.531l-43.225-76.306l9.287-53.003l16.711,16.711
	c0.909,0.909,2.025,1.565,3.236,1.923c0.825,0.305,1.715,0.471,2.64,0.471c0.111,0,0.223-0.002,0.335-0.007l90.802-3.914v271.122
	c0,4.212,3.415,7.628,7.628,7.628h21.162c4.212,0,7.628-3.415,7.628-7.628v-272.67c1.791-0.823,3.241-2.312,3.963-4.231
	l13.979-37.145C448.344,187.92,447.975,185.219,446.459,183.142z M408.333,90.481h5.907v90.622h-5.907V90.481z M420.992,217.287
	l-20.018,0.493l-0.883-20.467l18.866-0.955h2.911c0.649,0,1.275-0.09,1.877-0.242l5.316-0.27L420.992,217.287z M286.31,81.792
	c-1.773,1.649-4.079,2.504-6.45,2.424l0,0l-28.502-1.024c-0.958-0.035-1.887-0.227-2.765-0.55c-0.443-0.267-0.918-0.49-1.421-0.664
	c-0.758-0.443-1.456-1.003-2.074-1.666c-1.65-1.773-2.51-4.063-2.424-6.451l0.591-16.434c10.287-2.197,30.997-7.887,47.311-20.442
	l-1.387,38.548C289.105,77.919,288.082,80.142,286.31,81.792z M253.474,15.254c0.109,0,0.219,0.002,0.328,0.006l28.501,1.025
	c2.17,0.078,4.2,0.938,5.79,2.424c-12.296,13.37-32.577,20.024-44.258,22.906l0.636-17.671
	C244.645,19.087,248.653,15.254,253.474,15.254z M250.732,98.431c0.026,0.001,0.052,0.004,0.078,0.005l15.648,0.562l-2.202,15.406
	c-2.281-0.849-4.653-1.504-7.1-1.933l-8.702-1.524L250.732,98.431z M128.991,158.631L141.17,91.75l7.083,1.771l-11.729,66.929
	L128.991,158.631z M184.964,215.835l-39.27-6.882c-1.147-0.2-1.948-1.34-1.746-2.488l24.266-138.472
	c0.201-1.147,1.341-1.946,2.489-1.746l39.27,6.882c1.147,0.2,1.948,1.34,1.746,2.488l-17.782,101.472l-6.484,37.001
	C187.25,215.237,186.112,216.035,184.964,215.835z M125.832,480.535l-0.592,0.596l-42.752-42.753l8.356-8.356l18.942,23.922
	c0.005,0.007,0.011,0.013,0.016,0.02l16.361,20.662C127.563,476.394,127.421,478.934,125.832,480.535z M189.421,364.588
	c-0.424,1.585-1.189,3.047-2.272,4.347c-0.147,0.176-0.287,0.36-0.417,0.549c-0.419,0.606-0.837,1.119-1.278,1.564l-68.924,66.837
	l-14.733-18.607l64.476-61.749c0.965-0.924,1.671-2.087,2.046-3.369l23.147-79.225l21.266,3.726l0.317,0.559L189.421,364.588z
	 M339.149,488.581l0.003,0.839h-60.461v-11.818l56.513,6.566C337.446,484.429,339.141,486.326,339.149,488.581z M304.655,221.794
	l-70.773-70.773c-2.979-2.979-7.809-2.979-10.786,0c-2.979,2.979-2.979,7.809,0,10.786l43.083,43.083l-11.608,66.242
	c-0.305,1.742,0.004,3.537,0.876,5.076l44.605,78.742c0.821,1.421,1.314,2.996,1.467,4.682c0.021,0.228,0.052,0.455,0.093,0.679
	c0.136,0.745,0.202,1.42,0.202,2.06v102.559l-23.121-2.686v-96.082c0-1.318-0.341-2.613-0.991-3.76l-49.818-87.945
	c-0.003-0.006-0.006-0.011-0.01-0.017l-3.045-5.375c-0.074-0.131-0.135-0.266-0.2-0.401l-0.129-0.263
	c-1.077-2.179-3.128-3.715-5.522-4.135l-24.09-4.222l23.941-136.621c0.201-1.147,1.339-1.944,2.488-1.746l16.185,2.836
	c0.23,0.064,0.464,0.121,0.704,0.165c0.268,0.049,0.536,0.078,0.802,0.099l15.518,2.719c6.5,1.139,12.185,4.768,16.011,10.219
	c0.89,1.268,1.648,2.599,2.28,3.974l-9.657-9.255c-3.041-2.915-7.87-2.812-10.784,0.229c-2.915,3.041-2.813,7.87,0.229,10.784
	l57.835,55.431c1.502,1.44,3.533,2.2,5.607,2.114l68.809-2.967l0.874,20.271L304.655,221.794z M414.24,496.745h-5.907V233.218h5.907
	V496.745z"/>
</svg>